<?xml version="1.0" encoding="UTF-8" standalone="no"?>
<svg
   width="256"
   height="256"
   viewBox="0 0 256 256"
   fill="none"
   version="1.1"
   id="svg2633"
   sodipodi:docname="Guilded.svg"
   xml:space="preserve"
   inkscape:version="1.2.1 (9c6d41e410, 2022-07-14)"
   xmlns:inkscape="http://www.inkscape.org/namespaces/inkscape"
   xmlns:sodipodi="http://sodipodi.sourceforge.net/DTD/sodipodi-0.dtd"
   xmlns="http://www.w3.org/2000/svg"
   xmlns:svg="http://www.w3.org/2000/svg"><defs
     id="defs2637" /><sodipodi:namedview
     id="namedview2635"
     pagecolor="#ffffff"
     bordercolor="#000000"
     borderopacity="0.25"
     inkscape:showpageshadow="2"
     inkscape:pageopacity="0.0"
     inkscape:pagecheckerboard="0"
     inkscape:deskcolor="#d1d1d1"
     showgrid="false"
     inkscape:zoom="1.6015625"
     inkscape:cx="99.902439"
     inkscape:cy="92.721951"
     inkscape:window-width="1920"
     inkscape:window-height="1009"
     inkscape:window-x="-8"
     inkscape:window-y="-8"
     inkscape:window-maximized="1"
     inkscape:current-layer="svg2633" /><rect
     width="256"
     height="256"
     rx="60"
     fill="#242938"
     id="rect2617"
     style="fill:#f5c400;fill-opacity:1" /><path
     d="m 80.119451,86.962289 c 0,0 0.14286,20.332071 10.58281,41.360351 10.725669,20.24153 25.514189,33.24341 37.714119,38.42265 12.60567,-5.89246 24.78276,-16.12074 31.42843,-27.1415 h -34.60555 c -8.95424,-7.42077 -15.99993,-19.73208 -17.61707,-33.96227 h 101.51957 c -5.00571,22.87924 -15.62852,43.68679 -25.74847,56.93774 C 169.34695,180.95219 150.30079,194.9745 128.49067,203 h -0.32 C 91.759401,188.49245 72.170931,165.64152 59.245271,139.8585 50.953881,123.33586 42.285346,93.335858 42.285346,53 H 213.71393 c 0.0276,11.359399 -0.736,22.707171 -2.28648,33.962289 z"
     id="Path"
     fill="#111820"
     fill-rule="nonzero"
     style="stroke:none;stroke-width:2.38095" /></svg>
